<?xml version="1.0" encoding="UTF-8" standalone="no"?>
<!-- Created with Inkscape (http://www.inkscape.org/) -->

<svg
   width="134.99995mm"
   height="135mm"
   viewBox="0 0 134.99995 135"
   version="1.1"
   id="svg1"
   xml:space="preserve"
   sodipodi:docname="dark-theme.svg"
   inkscape:version="1.4.2 (f4327f4, 2025-05-13)"
   xmlns:inkscape="http://www.inkscape.org/namespaces/inkscape"
   xmlns:sodipodi="http://sodipodi.sourceforge.net/DTD/sodipodi-0.dtd"
   xmlns="http://www.w3.org/2000/svg"
   xmlns:svg="http://www.w3.org/2000/svg"><sodipodi:namedview
     id="namedview1"
     pagecolor="#505050"
     bordercolor="#ffffff"
     borderopacity="1"
     inkscape:showpageshadow="0"
     inkscape:pageopacity="0"
     inkscape:pagecheckerboard="1"
     inkscape:deskcolor="#505050"
     inkscape:document-units="mm"
     inkscape:zoom="1.2576516"
     inkscape:cx="582.83232"
     inkscape:cy="448.05731"
     inkscape:window-width="3840"
     inkscape:window-height="2054"
     inkscape:window-x="-11"
     inkscape:window-y="-11"
     inkscape:window-maximized="1"
     inkscape:current-layer="g3" /><defs
     id="defs1" /><g
     id="layer1"
     transform="translate(-909.50092,149.58993)"><g
       id="g3"
       transform="translate(209.54226,-4.943904)"><rect
         style="fill:none;fill-opacity:0;stroke:none;stroke-width:0.499999;stroke-linejoin:round"
         id="rect2-6"
         width="135"
         height="135"
         x="699.95862"
         y="-144.64603" /><path
         id="path1-7"
         style="fill:#212121;stroke-width:0.499998;stroke-linejoin:round"
         d="m 290.8794,-78.506319 a 61,61 0 0 0 -7.92561,0.854211 V 42.531771 a 61,61 0 0 0 7.92561,0.854211 z m 5.29374,0.0072 V 43.378748 a 61,61 0 0 0 58.26724,-60.938916 61,61 0 0 0 -58.26724,-60.938916 z m -18.51309,2.01538 a 61,61 0 0 0 -7.89047,2.703195 V 38.660173 a 61,61 0 0 0 7.89047,2.703194 z m -13.18369,5.23844 a 61,61 0 0 0 -7.87342,5.064291 v 97.241609 a 61,61 0 0 0 7.87342,5.064291 z m -13.16715,9.572026 a 61,61 0 0 0 -7.86722,9.168432 v 69.889275 a 61,61 0 0 0 7.86722,9.168432 z m -13.16096,18.349784 a 61,61 0 0 0 -5.70766,25.763286 61,61 0 0 0 5.70766,25.7632849 z"
         transform="translate(474.01813,-59.585858)" /></g></g></svg>
